<svg xmlns="http://www.w3.org/2000/svg">

  <symbol viewBox="0 0 48 48" fill="none" id="spotify-icon">
    <path d="M24 0C10.7076 0 0 10.7076 0 24C0 37.2924 10.7076 48 24 48C37.2912 48 48 37.2924 48 24C48 10.7076 37.2912 0 24 0Z" fill="#8BC34A" />
    <path d="M33.2948 35.8981C32.9444 35.8981 32.5928 35.7241 32.2424 35.5477C28.91 33.6193 24.8756 32.5669 20.492 32.5669C18.0356 32.5669 15.5804 32.9161 13.3004 33.4429C12.95 33.4429 12.4232 33.6181 12.248 33.6181C11.3708 33.6181 10.8452 32.9149 10.8452 32.2141C10.8452 31.3381 11.3708 30.8101 12.0728 30.6373C14.8784 29.9341 17.6852 29.5849 20.666 29.5849C25.5776 29.5849 30.1376 30.8101 33.9956 33.0937C34.5212 33.4429 34.8728 33.7945 34.8728 34.6705C34.6976 35.3737 33.9956 35.8981 33.2948 35.8981ZM35.75 29.9341C35.2244 29.9341 34.874 29.7613 34.5224 29.5849C30.8408 27.3049 25.7528 25.8997 19.9664 25.8997C17.1596 25.8997 14.5292 26.2513 12.5996 26.7793C12.0728 26.9521 11.8976 26.9521 11.5472 26.9521C10.4948 26.9521 9.79284 26.0761 9.79284 25.1989C9.79284 24.1465 10.3196 23.6197 11.1956 23.2705C13.826 22.5697 16.4576 22.0429 20.1404 22.0429C26.1044 22.0429 31.892 23.4469 36.452 26.2513C37.1528 26.6005 37.5044 27.3037 37.5044 28.0045C37.5044 29.0581 36.8024 29.9341 35.75 29.9341ZM38.5568 22.9213C38.0312 22.9213 37.8548 22.7461 37.3292 22.5721C33.1196 20.1157 26.8064 18.7117 20.6672 18.7117C17.51 18.7117 14.3528 19.0633 11.5472 19.7641C11.1956 19.7641 10.8452 19.9393 10.3196 19.9393C9.09204 20.1145 8.21484 19.0633 8.21484 17.8345C8.21484 16.6069 8.91684 15.9061 9.79284 15.7297C13.1252 14.6773 16.6328 14.3257 20.6672 14.3257C27.332 14.3257 34.3472 15.7297 39.6092 18.7105C40.31 19.0621 40.8356 19.7629 40.8356 20.8153C40.6616 22.0429 39.7832 22.9213 38.5568 22.9213Z" fill="white" />
  </symbol>

  <symbol viewBox="0 0 48 34" fill="none" id="youtube-icon">
    <g clip-path="url(#clip0_3132_63)">
      <path d="M31.9739 16.3664C27.5728 14.0145 23.3588 11.8522 19.0513 9.59473V23.0997C23.5841 20.6356 28.3618 18.379 31.9926 16.3664H31.9739Z" fill="white" />
      <path d="M31.9739 16.3664C27.5728 14.0145 19.0513 9.59473 19.0513 9.59473L30.4128 17.2311C30.4128 17.2311 28.3431 18.379 31.9739 16.3664Z" fill="#E8E0E0" />
      <path d="M19.8794 33.6714C10.738 33.5031 7.61578 33.3517 5.69667 32.9563C4.39827 32.6936 3.26996 32.1103 2.44265 31.2643C1.80324 30.624 1.29474 29.6471 0.900236 28.2917C0.561831 27.1625 0.430031 26.223 0.242128 23.928C-0.0455158 18.7487 -0.114087 14.5142 0.242128 9.78273C0.536006 7.16989 0.678491 4.06815 2.63055 2.25858C3.55226 1.41168 4.62447 0.866666 5.82847 0.64136C7.70929 0.284254 15.7224 0.00195312 24.0177 0.00195312C32.2944 0.00195312 40.3252 0.284254 42.2078 0.64136C43.712 0.92366 45.1226 1.76967 45.9508 2.86058C47.7318 5.66221 47.763 9.146 47.9438 11.871C48.0186 13.1694 48.0186 20.5422 47.9438 21.8406C47.6624 26.1473 47.4362 27.671 46.7968 29.2508C46.4014 30.2482 46.0639 30.7745 45.4797 31.3578C44.5635 32.2554 43.3954 32.8525 42.1313 33.0694C34.2206 33.6643 27.5033 33.7934 19.8794 33.6714ZM31.9934 16.3665C27.5923 14.0146 23.3783 11.8336 19.0708 9.57613V23.082C23.6036 20.6179 28.3822 18.3604 32.0121 16.3478L31.9934 16.3665Z" fill="#CD201F" />
    </g>
    <defs><clipPath id="clip0_3132_63"><rect width="48" height="33.7152" fill="white" /></clipPath></defs>
  </symbol>

  <symbol viewBox="0 0 48 48" fill="none" id="instagram-icon">
    <g clip-path="url(#clip0_3132_55)">
      <path d="M12.1718 47.8301C10.3152 47.8094 8.47601 47.4689 6.73506 46.8235C5.46374 46.3536 4.31351 45.6055 3.36847 44.6339C2.39424 43.6907 1.64503 42.5402 1.17647 41.2678C0.531648 39.5269 0.191615 37.6879 0.171294 35.8315C0.0287059 32.7454 0 31.8198 0 24C0 16.1802 0.0315294 15.2579 0.169882 12.1694C0.192669 10.3138 0.533121 8.47575 1.17647 6.73506C1.64731 5.46353 2.39546 4.31284 3.36659 3.36659C4.31046 2.39324 5.46123 1.64472 6.73365 1.17647C8.4746 0.531114 10.3137 0.190602 12.1704 0.169882C15.2574 0.0287059 16.1845 0 24 0C31.8155 0 32.7421 0.0315294 35.8306 0.169882C37.6867 0.192508 39.5252 0.532963 41.2664 1.17647C42.5382 1.64533 43.6887 2.39359 44.6329 3.36612C45.6058 4.3107 46.3543 5.46146 46.8235 6.73365C47.469 8.47457 47.8097 10.3137 47.8306 12.1704C47.9718 15.2588 48.0005 16.1835 48.0005 24.0009C48.0005 31.8184 47.9718 32.7431 47.8306 35.8315C47.8082 37.6879 47.4676 39.5266 46.8235 41.2678C46.3364 42.5304 45.5902 43.6771 44.6331 44.634C43.676 45.5908 42.5291 46.3367 41.2664 46.8235C39.5254 47.469 37.6863 47.8097 35.8296 47.8306C32.744 47.9718 31.8165 48.0005 23.9991 48.0005C16.1816 48.0005 15.2569 47.9732 12.1713 47.8306" fill="url(#paint0_radial_3132_55)" />
      <path d="M12.1718 47.8301C10.3152 47.8094 8.47601 47.4689 6.73506 46.8235C5.46374 46.3536 4.31351 45.6055 3.36847 44.6339C2.39424 43.6907 1.64503 42.5402 1.17647 41.2678C0.531648 39.5269 0.191615 37.6879 0.171294 35.8315C0.0287059 32.7454 0 31.8198 0 24C0 16.1802 0.0315294 15.2579 0.169882 12.1694C0.192669 10.3138 0.533121 8.47575 1.17647 6.73506C1.64731 5.46353 2.39546 4.31284 3.36659 3.36659C4.31046 2.39324 5.46123 1.64472 6.73365 1.17647C8.4746 0.531114 10.3137 0.190602 12.1704 0.169882C15.2574 0.0287059 16.1845 0 24 0C31.8155 0 32.7421 0.0315294 35.8306 0.169882C37.6867 0.192508 39.5252 0.532963 41.2664 1.17647C42.5382 1.64533 43.6887 2.39359 44.6329 3.36612C45.6058 4.3107 46.3543 5.46146 46.8235 6.73365C47.469 8.47457 47.8097 10.3137 47.8306 12.1704C47.9718 15.2588 48.0005 16.1835 48.0005 24.0009C48.0005 31.8184 47.9718 32.7431 47.8306 35.8315C47.8082 37.6879 47.4676 39.5266 46.8235 41.2678C46.3364 42.5304 45.5902 43.6771 44.6331 44.634C43.676 45.5908 42.5291 46.3367 41.2664 46.8235C39.5254 47.469 37.6863 47.8097 35.8296 47.8306C32.744 47.9718 31.8165 48.0005 23.9991 48.0005C16.1816 48.0005 15.2569 47.9732 12.1713 47.8306" fill="url(#paint1_radial_3132_55)" />
      <path d="M18.1067 24.1021C18.1068 22.9264 18.4555 21.7772 19.1088 20.7998C19.762 19.8223 20.6904 19.0605 21.7766 18.6108C22.8628 18.161 24.0579 18.0434 25.211 18.2729C26.364 18.5023 27.4231 19.0686 28.2542 19.9C29.0854 20.7314 29.6514 21.7906 29.8806 22.9437C30.1098 24.0967 29.992 25.2919 29.5419 26.378C29.0919 27.464 28.3299 28.3923 27.3523 29.0453C26.3747 29.6983 25.2254 30.0467 24.0498 30.0465C22.4734 30.0463 20.9617 29.4199 19.8472 28.3051C18.7326 27.1903 18.1066 25.6784 18.1067 24.1021ZM14.8931 24.1021C14.8931 25.9131 15.4301 27.6834 16.4362 29.1893C17.4424 30.6951 18.8725 31.8687 20.5457 32.5618C22.2188 33.2548 24.0599 33.4361 25.8362 33.0828C27.6124 32.7295 29.244 31.8574 30.5245 30.5768C31.8051 29.2962 32.6772 27.6647 33.0305 25.8884C33.3838 24.1122 33.2025 22.2711 32.5095 20.5979C31.8164 18.9248 30.6428 17.4947 29.137 16.4885C27.6311 15.4824 25.8608 14.9453 24.0498 14.9453C22.8473 14.9453 21.6566 15.1821 20.5456 15.6422C19.4346 16.1024 18.4252 16.7768 17.5749 17.6271C16.7246 18.4774 16.0501 19.4869 15.59 20.5979C15.1298 21.7088 14.893 22.8996 14.8931 24.1021ZM31.4291 14.5825C31.4289 15.0057 31.5542 15.4195 31.7892 15.7715C32.0241 16.1235 32.3582 16.3979 32.7491 16.56C33.14 16.7221 33.5702 16.7647 33.9853 16.6823C34.4005 16.5999 34.7818 16.3963 35.0812 16.0972C35.3806 15.798 35.5845 15.4169 35.6673 15.0018C35.75 14.5868 35.7079 14.1565 35.5461 13.7655C35.3843 13.3744 35.1102 13.0401 34.7584 12.8048C34.4066 12.5696 33.993 12.4439 33.5698 12.4437C33.0025 12.444 32.4585 12.6693 32.0573 13.0704C31.6561 13.4714 31.4305 14.0153 31.43 14.5825M16.8465 38.6173C15.7157 38.6049 14.5955 38.398 13.5349 38.0056C12.7658 37.7091 12.0673 37.2549 11.4843 36.6722C10.9013 36.0894 10.4468 35.3911 10.15 34.6221C9.75743 33.5615 9.55048 32.4413 9.53824 31.3105C9.45166 29.431 9.43471 28.8663 9.43471 24.1044C9.43471 19.3425 9.45354 18.7792 9.53824 16.8978C9.55196 15.7672 9.75886 14.6472 10.15 13.5863C10.4464 12.8169 10.9008 12.1182 11.4838 11.5352C12.0668 10.9522 12.7656 10.4978 13.5349 10.2013C14.5955 9.80878 15.7157 9.60183 16.8465 9.58959C18.726 9.503 19.2907 9.48606 24.0507 9.48606C28.8107 9.48606 29.3759 9.50441 31.2573 9.59006C32.3879 9.60378 33.5079 9.81067 34.5688 10.2018C35.3382 10.4983 36.0369 10.9527 36.6199 11.5357C37.2029 12.1187 37.6573 12.8174 37.9538 13.5868C38.3463 14.6473 38.5533 15.7675 38.5655 16.8983C38.6521 18.7806 38.6691 19.3425 38.6691 24.1049C38.6691 28.8672 38.6516 29.4301 38.5655 31.3115C38.5524 32.4422 38.3454 33.5622 37.9538 34.623C37.657 35.392 37.2025 36.0904 36.6195 36.6731C36.0365 37.2559 35.338 37.7101 34.5688 38.0065C33.5083 38.3991 32.3881 38.606 31.2573 38.6183C29.3778 38.7049 28.8131 38.7218 24.0507 38.7218C19.2884 38.7218 18.7255 38.7044 16.8465 38.6183M16.6987 6.37876C15.2191 6.40785 13.7552 6.6879 12.3693 7.20699C11.1846 7.66505 10.1087 8.36561 9.21054 9.26376C8.31239 10.1619 7.61182 11.2378 7.15377 12.4225C6.63475 13.8084 6.3547 15.2723 6.32554 16.7519C6.23754 18.6531 6.21777 19.2611 6.21777 24.1039C6.21777 28.9468 6.23801 29.5543 6.32554 31.4559C6.35469 32.9355 6.63474 34.3995 7.15377 35.7853C7.61185 36.97 8.31242 38.0459 9.21056 38.9441C10.1087 39.8422 11.1846 40.5428 12.3693 41.0009C13.7552 41.5197 15.2191 41.7998 16.6987 41.8291C18.6008 41.9157 19.2079 41.9369 24.0507 41.9369C28.8935 41.9369 29.5011 41.9166 31.4027 41.8291C32.8823 41.7999 34.3462 41.5198 35.7321 41.0009C36.9168 40.5428 37.9927 39.8422 38.8909 38.9441C39.789 38.0459 40.4896 36.97 40.9477 35.7853C41.4674 34.3996 41.7474 32.9356 41.7759 31.4559C41.8625 29.5534 41.8822 28.9468 41.8822 24.1039C41.8822 19.2611 41.862 18.6536 41.7759 16.7519C41.7468 15.2723 41.4667 13.8084 40.9477 12.4225C40.4896 11.238 39.7892 10.1623 38.8913 9.26417C37.9935 8.36605 36.9179 7.66536 35.7335 7.20699C34.3478 6.68757 32.8838 6.40751 31.4041 6.37876C29.5025 6.2917 28.8949 6.271 24.0531 6.271C19.2112 6.271 18.6022 6.29123 16.6996 6.37876" fill="white" />
    </g>
    <defs>
      <radialGradient id="paint0_radial_3132_55" cx="0" cy="0" r="1" gradientUnits="userSpaceOnUse" gradientTransform="translate(3.10635 46.9487) scale(60.9421)">
        <stop offset="0.09" stop-color="#FA8F21" />
        <stop offset="0.78" stop-color="#D82D7E" />
      </radialGradient>
      <radialGradient id="paint1_radial_3132_55" cx="0" cy="0" r="1" gradientUnits="userSpaceOnUse" gradientTransform="translate(33.248 45.4071) scale(53.6296)">
        <stop offset="0.64" stop-color="#8C3AAA" stop-opacity="0" />
        <stop offset="1" stop-color="#8C3AAA" />
      </radialGradient>
      <clipPath id="clip0_3132_55">
        <rect width="48" height="48" fill="white" />
      </clipPath>
    </defs>
  </symbol>

  <symbol viewBox="0 0 48 48" fill="none" id="facebook-icon">
    <g clip-path="url(#clip0_3132_49)">
      <path d="M40.8 0H7.2C3.22355 0 0 3.22355 0 7.2V40.8C0 44.7765 3.22355 48 7.2 48H40.8C44.7765 48 48 44.7765 48 40.8V7.2C48 3.22355 44.7765 0 40.8 0Z" fill="#1877F2" />
      <path d="M33.3375 30.9375L34.4062 24H27.75V19.5C27.75 17.6062 28.6781 15.75 31.6594 15.75H34.6875V9.84375C34.6875 9.84375 31.9406 9.375 29.3156 9.375C23.8313 9.375 20.25 12.6938 20.25 18.7125V24H14.1562V30.9375H20.25V48H27.75V30.9375H33.3375Z" fill="white" />
    </g>
    <defs>
      <clipPath id="clip0_3132_49">
        <rect width="48" height="48" fill="white" />
      </clipPath>
    </defs>
  </symbol>

  <symbol viewBox="0 0 48 48" fill="none" id="telegram-icon">
    <g clip-path="url(#clip0_3132_59)">
      <path d="M48 24C48 10.7452 37.2548 0 24 0C10.7452 0 0 10.7452 0 24C0 37.2548 10.7452 48 24 48C37.2548 48 48 37.2548 48 24Z" fill="#419FD9" />
      <path d="M48 24C48 10.7452 37.2548 0 24 0C10.7452 0 0 10.7452 0 24C0 37.2548 10.7452 48 24 48C37.2548 48 48 37.2548 48 24Z" fill="url(#paint0_linear_3132_59)" />
      <path d="M10.7874 23.4709C17.7667 20.3663 22.4206 18.3195 24.7493 17.3305C31.3979 14.507 32.7795 14.0165 33.68 14.0002C33.878 13.9968 34.3208 14.0469 34.6077 14.2845C34.8499 14.4852 34.9165 14.7563 34.9484 14.9465C34.9803 15.1368 35.02 15.5702 34.9884 15.9088C34.6281 19.774 33.0692 29.1539 32.276 33.483C31.9404 35.3148 31.2796 35.929 30.6399 35.9891C29.2496 36.1197 28.1938 35.051 26.8473 34.1497C24.7401 32.7395 23.5498 31.8615 21.5044 30.4854C19.1407 28.895 20.673 28.0209 22.0201 26.5923C22.3726 26.2185 28.4983 20.5295 28.6169 20.0135C28.6317 19.9489 28.6455 19.7083 28.5055 19.5813C28.3655 19.4543 28.1589 19.4977 28.0098 19.5322C27.7985 19.5812 24.4323 21.8529 17.9113 26.3473C16.9558 27.0172 16.0904 27.3435 15.315 27.3264C14.4602 27.3076 12.8159 26.833 11.5935 26.4273C10.0942 25.9296 8.90254 25.6666 9.0063 24.8215C9.06035 24.3813 9.65403 23.9311 10.7874 23.4709Z" fill="white" />
    </g>
    <defs>
      <linearGradient id="paint0_linear_3132_59" x1="24" y1="0" x2="24" y2="47.644" gradientUnits="userSpaceOnUse">
        <stop stop-color="#2AABEE" />
        <stop offset="1" stop-color="#229ED9" />
      </linearGradient>
      <clipPath id="clip0_3132_59">
        <rect width="48" height="48" fill="white" />
      </clipPath>
    </defs>
  </symbol>

  <symbol viewBox="0 0 48 48" fill="none" id="imdb-icon">
    <g clip-path="url(#clip0_3132_52)">
      <path d="M40.8 0H7.2C3.22355 0 0 3.22355 0 7.2V40.8C0 44.7765 3.22355 48 7.2 48H40.8C44.7765 48 48 44.7765 48 40.8V7.2C48 3.22355 44.7765 0 40.8 0Z" fill="#F5C518" />
      <path d="M9.75 30.75V17.25H6V30.75H9.75ZM17.7188 17.25L16.875 23.5312L16.4062 20.1562L15.9375 17.25H11.25V30.75H14.4375V21.8438L15.75 30.75H18.0938L19.3125 21.6562V30.75H22.5V17.25H17.7188ZM24 30.75V17.25H29.8125C31.2188 17.25 32.25 18.2812 32.25 19.5938V28.4062C32.25 29.7188 31.2188 30.75 29.8125 30.75H24ZM28.4062 19.6875L27.5625 19.5938V28.4062C28.0312 28.4062 28.4062 28.3125 28.5 28.125C28.6875 27.9375 28.6875 27.375 28.6875 26.4375V21.1875V20.0625L28.4062 19.6875ZM39.2812 20.625H39.5625C40.875 20.625 42 21.6562 42 22.9688V28.4062C42 29.7188 40.875 30.75 39.5625 30.75H39.2812C38.5312 30.75 37.7812 30.375 37.3125 29.7188L37.125 30.5625H33.75V17.25H37.3125V21.5625C37.7812 21 38.5312 20.625 39.2812 20.625ZM38.5312 27.1875V24L38.4375 22.9688C38.3438 22.7812 38.0625 22.6875 37.875 22.6875C37.6875 22.6875 37.4062 22.7812 37.3125 22.9688V28.3125C37.4062 28.5 37.6875 28.5938 37.875 28.5938C38.0625 28.5938 38.4375 28.5 38.4375 28.3125L38.5312 27.1875Z" fill="black" />
    </g>
    <defs>
      <clipPath id="clip0_3132_52">
        <rect width="48" height="48" fill="white" />
      </clipPath>
    </defs>
  </symbol>

  

</svg>